<?xml version="1.0" standalone="no"?>
<!DOCTYPE svg PUBLIC "-//W3C//DTD SVG 20010904//EN"
 "http://www.w3.org/TR/2001/REC-SVG-20010904/DTD/svg10.dtd">
<svg version="1.0" xmlns="http://www.w3.org/2000/svg"
 width="720.000000pt" height="720.000000pt" viewBox="0 0 720.000000 720.000000"
 preserveAspectRatio="xMidYMid meet">
<metadata>
Created by potrace 1.16, written by Peter Selinger 2001-2019
</metadata>
<g transform="translate(0.000000,720.000000) scale(0.100000,-0.100000)"
fill="#000000" stroke="none">
<path d="M0 3600 l0 -3600 3600 0 3600 0 0 3600 0 3600 -3600 0 -3600 0 0
-3600z m6950 -5 l0 -3345 -3345 0 -3345 0 0 3345 0 3345 3345 0 3345 0 0
-3345z"/>
<path d="M1249 6630 c-108 -58 -130 -176 -49 -264 l38 -41 -39 -33 c-47 -39
-69 -88 -69 -149 0 -51 16 -87 57 -125 39 -37 73 -48 151 -48 101 1 174 41
201 113 16 40 13 123 -4 156 -14 28 -62 74 -87 84 -9 4 -3 15 19 34 88 79 84
197 -10 267 -41 30 -158 34 -208 6z m148 -65 c33 -23 47 -86 29 -128 -18 -43
-60 -77 -87 -70 -11 3 -36 20 -55 38 -28 27 -34 39 -34 74 0 80 86 129 147 86z
m1 -312 c97 -73 56 -213 -62 -213 -112 0 -142 170 -42 231 35 21 56 18 104
-18z"/>
<path d="M773 6600 c-71 -40 -72 -40 -63 -71 5 -18 12 -34 14 -37 3 -2 25 7
50 22 24 14 49 26 55 26 7 0 12 -92 13 -282 l3 -283 45 0 45 0 3 333 2 332
-47 0 c-37 0 -64 -9 -120 -40z"/>
<path d="M2256 5293 c-65 -214 -201 -660 -303 -993 -101 -333 -247 -812 -324
-1065 -77 -253 -187 -613 -245 -801 -57 -187 -104 -346 -104 -352 0 -9 74 -12
278 -12 l277 0 155 530 154 530 552 0 551 0 143 -467 c78 -258 151 -496 162
-530 l19 -63 284 0 c157 0 285 3 285 8 0 4 -246 816 -547 1805 l-548 1797
-336 0 -335 0 -118 -387z m747 -1229 c81 -270 147 -496 147 -503 0 -8 -123
-11 -461 -11 -365 0 -460 3 -456 13 2 6 70 230 150 497 151 502 174 585 252
930 26 113 50 209 53 214 3 5 42 -139 87 -320 45 -181 148 -550 228 -820z"/>
<path d="M5642 4704 c-122 -32 -228 -100 -334 -213 -61 -65 -87 -103 -130
-190 -29 -61 -56 -110 -60 -111 -8 0 -16 101 -24 313 l-6 167 -237 -2 c-204
-3 -235 -5 -231 -18 2 -8 6 -592 8 -1297 l3 -1283 275 0 274 0 0 739 c0 617 3
753 15 827 32 185 85 294 195 405 122 123 239 165 438 156 l112 -4 0 257 c0
226 -2 259 -16 264 -30 11 -229 5 -282 -10z"/>
</g>
</svg>
